{
    "asset" : {
        "copyright" : "Ismael",
        "generator" : "Khronos glTF Blender I/O v3.2.43",
        "version" : "2.0"
    },
    "scene" : 0,
    "scenes" : [
        {
            "extras" : {
                "uiListCollec" : [
                    {
                        "idx" : 0,
                        "val" : -0.8877512216567993,
                        "color" : [
                            0.0,
                            0.0,
                            0.0,
                            1.0
                        ]
                    },
                    {
                        "idx" : 1,
                        "val" : 1.5199695825576782,
                        "color" : [
                            1.0,
                            1.0,
                            1.0,
                            1.0
                        ]
                    }
                ]
            },
            "name" : "Scene",
            "nodes" : [
                0
            ]
        }
    ],
    "nodes" : [
        {
            "mesh" : 0,
            "name" : "Museu",
            "rotation" : [
                0,
                0.7071068286895752,
                0,
                0.7071068286895752
            ]
        }
    ],
    "animations" : [
        {
            "channels" : [
                {
                    "sampler" : 0,
                    "target" : {
                        "node" : 0,
                        "path" : "translation"
                    }
                },
                {
                    "sampler" : 1,
                    "target" : {
                        "node" : 0,
                        "path" : "rotation"
                    }
                },
                {
                    "sampler" : 2,
                    "target" : {
                        "node" : 0,
                        "path" : "scale"
                    }
                }
            ],
            "name" : "Museu",
            "samplers" : [
                {
                    "input" : 4,
                    "interpolation" : "LINEAR",
                    "output" : 5
                },
                {
                    "input" : 4,
                    "interpolation" : "LINEAR",
                    "output" : 6
                },
                {
                    "input" : 4,
                    "interpolation" : "LINEAR",
                    "output" : 7
                }
            ]
        }
    ],
    "materials" : [
        {
            "doubleSided" : true,
            "name" : "MaterialMuseu",
            "pbrMetallicRoughness" : {
                "baseColorTexture" : {
                    "index" : 0
                },
                "metallicFactor" : 0
            }
        }
    ],
    "meshes" : [
        {
            "name" : "Cylinder.006",
            "primitives" : [
                {
                    "attributes" : {
                        "POSITION" : 0,
                        "NORMAL" : 1,
                        "TEXCOORD_0" : 2
                    },
                    "indices" : 3,
                    "material" : 0
                }
            ]
        }
    ],
    "textures" : [
        {
            "sampler" : 0,
            "source" : 0
        }
    ],
    "images" : [
        {
            "mimeType" : "image/jpeg",
            "name" : "TextureMuseu",
            "uri" : "texturas/TextureMuseu.jpg"
        }
    ],
    "accessors" : [
        {
            "bufferView" : 0,
            "componentType" : 5126,
            "count" : 5672,
            "max" : [
                1.4948402643203735,
                1.5199695825576782,
                1.3681831359863281
            ],
            "min" : [
                -1.505159854888916,
                -0.9247930645942688,
                -1.6318168640136719
            ],
            "type" : "VEC3"
        },
        {
            "bufferView" : 1,
            "componentType" : 5126,
            "count" : 5672,
            "type" : "VEC3"
        },
        {
            "bufferView" : 2,
            "componentType" : 5126,
            "count" : 5672,
            "type" : "VEC2"
        },
        {
            "bufferView" : 3,
            "componentType" : 5123,
            "count" : 9702,
            "type" : "SCALAR"
        },
        {
            "bufferView" : 4,
            "componentType" : 5126,
            "count" : 2,
            "max" : [
                0.041666666666666664
            ],
            "min" : [
                0
            ],
            "type" : "SCALAR"
        },
        {
            "bufferView" : 5,
            "componentType" : 5126,
            "count" : 2,
            "type" : "VEC3"
        },
        {
            "bufferView" : 6,
            "componentType" : 5126,
            "count" : 2,
            "type" : "VEC4"
        },
        {
            "bufferView" : 7,
            "componentType" : 5126,
            "count" : 2,
            "type" : "VEC3"
        }
    ],
    "bufferViews" : [
        {
            "buffer" : 0,
            "byteLength" : 68064,
            "byteOffset" : 0
        },
        {
            "buffer" : 0,
            "byteLength" : 68064,
            "byteOffset" : 68064
        },
        {
            "buffer" : 0,
            "byteLength" : 45376,
            "byteOffset" : 136128
        },
        {
            "buffer" : 0,
            "byteLength" : 19404,
            "byteOffset" : 181504
        },
        {
            "buffer" : 0,
            "byteLength" : 8,
            "byteOffset" : 200908
        },
        {
            "buffer" : 0,
            "byteLength" : 24,
            "byteOffset" : 200916
        },
        {
            "buffer" : 0,
            "byteLength" : 32,
            "byteOffset" : 200940
        },
        {
            "buffer" : 0,
            "byteLength" : 24,
            "byteOffset" : 200972
        }
    ],
    "samplers" : [
        {
            "magFilter" : 9729,
            "minFilter" : 9987
        }
    ],
    "buffers" : [
        {
            "byteLength" : 200996,
            "uri" : "museu.bin"
        }
    ]
}
